#N canvas 2 51 746 614 10;
#X text 94 46 Description: Writes a first-order Ambisonic sound file.
;
#X obj 91 251 noise~;
#X msg 223 253 angle \$1;
#X floatatom 223 233 5 0 0 0 - - -;
#X obj 226 212 hsl 120 15 0 360 0 0 empty empty empty -2 -8 0 10 -260097
-1 -1 0 1;
#X obj 89 277 ambi.mono2wxy~ @angle 0;
#X obj 223 169 tgl 15 0 empty empty empty 17 7 0 10 -262144 -1 -1 0
1;
#N canvas 2 51 454 304 auto_rotate 0;
#X obj 145 73 inlet;
#X obj 150 111 metro 20;
#X floatatom 206 88 5 0 0 0 - - -;
#X obj 135 234 outlet;
#X obj 154 164 f 0;
#X obj 208 164 + 1;
#X obj 208 184 % 360;
#X connect 0 0 1 0;
#X connect 1 0 4 0;
#X connect 2 0 1 1;
#X connect 4 0 5 0;
#X connect 4 0 3 0;
#X connect 5 0 6 0;
#X connect 6 0 4 1;
#X restore 223 190 pd auto_rotate;
#X obj 65 367 dac~;
#X msg 466 280 savepanel;
#X msg 492 311 start;
#X msg 505 352 stop;
#X obj 399 493 tgl 15 0 empty empty empty 17 7 0 10 -262144 -1 -1 0
1;
#X text 423 494 recording status;
#X text 85 211 example sound;
#X obj 398 460 ambi.sf.write.4~;
#X msg 309 299 angle 60;
#X msg 313 324 angle 360;
#X obj 321 270 loadbang;
#X obj 89 318 ambi.wxy2mono~;
#X obj 100 339 ambi.wxy2mono~;
#X obj 223 118 loadbang;
#X msg 223 142 1;
#X connect 1 0 5 0;
#X connect 2 0 5 1;
#X connect 3 0 2 0;
#X connect 4 0 3 0;
#X connect 5 0 15 0;
#X connect 5 0 19 0;
#X connect 5 0 20 0;
#X connect 5 1 15 1;
#X connect 5 1 19 1;
#X connect 5 1 20 1;
#X connect 5 2 15 2;
#X connect 5 2 19 2;
#X connect 5 2 20 2;
#X connect 6 0 7 0;
#X connect 7 0 4 0;
#X connect 9 0 15 4;
#X connect 10 0 15 4;
#X connect 11 0 15 4;
#X connect 15 0 12 0;
#X connect 16 0 19 3;
#X connect 17 0 20 3;
#X connect 18 0 16 0;
#X connect 18 0 17 0;
#X connect 19 0 8 0;
#X connect 20 0 8 1;
#X connect 21 0 22 0;
#X connect 22 0 6 0;
