#N canvas 474 160 521 433 10;
#X obj 16 49 noise~;
#X floatatom 341 178 5 0 0 0 - - -;
#X obj 15 304 dac~ 1 2;
#X obj 416 196 vu 15 120 empty empty -1 -8 0 10 -66577 -1 1 0;
#X msg 341 198 gain \$1;
#X obj 341 42 vsl 15 128 -100 6 0 0 empty empty empty 0 -9 0 10 -258113
-1 -1 11262 1;
#X obj 341 2 loadbang;
#X msg 341 21 -6;
#X text 3 -43 Description: Changes the gain (in dB) of 4 signals.;
#X text 5 -25 0dB is unity in RMS. -100dB is silence.;
#X text 5 -7 +6dB is twice as loud.;
#X obj 17 186 ambi.gain.4~;
#X msg 96 249 angle 90;
#X msg 278 256 angle 270;
#X obj 214 218 loadbang;
#X obj 14 274 ambi.wxy2mono~;
#X obj 197 275 ambi.wxy2mono~;
#X msg 123 74 angle \$1;
#X floatatom 123 54 5 0 0 0 - - -;
#X obj 126 33 hsl 120 15 0 360 0 0 empty empty empty -2 -8 0 10 -260097
-1 -1 6400 1;
#X obj 16 97 ambi.mono2wxy~;
#X connect 0 0 20 0;
#X connect 1 0 4 0;
#X connect 1 0 3 0;
#X connect 4 0 11 4;
#X connect 5 0 1 0;
#X connect 6 0 7 0;
#X connect 7 0 5 0;
#X connect 11 0 15 0;
#X connect 11 0 16 0;
#X connect 11 1 15 1;
#X connect 11 1 16 1;
#X connect 11 2 15 2;
#X connect 11 2 16 2;
#X connect 12 0 15 3;
#X connect 13 0 16 3;
#X connect 14 0 12 0;
#X connect 14 0 13 0;
#X connect 15 0 2 0;
#X connect 16 0 2 1;
#X connect 17 0 20 1;
#X connect 18 0 17 0;
#X connect 19 0 18 0;
#X connect 20 0 11 0;
#X connect 20 1 11 1;
#X connect 20 2 11 2;
