#N canvas 6 97 808 306 10;
#X obj 84 238 outlet~;
#X obj 159 237 outlet~;
#X obj 259 231 outlet~;
#X obj 334 230 outlet~;
#X obj 106 84 inlet~ w;
#X obj 194 87 inlet~ x;
#X obj 279 87 inlet~ y;
#X obj 431 29 inlet;
#X obj 431 108 route angles;
#X obj 430 133 unpack f f f f;
#X obj 478 60 loadbang;
#X msg 478 83 angles 45 135 315 225;
#X obj 346 174 ambi.wxy2mono~;
#X obj 254 173 ambi.wxy2mono~;
#X obj 67 173 ambi.wxy2mono~;
#X obj 158 175 ambi.wxy2mono~;
#X text 628 79 <-- FIXME: should be 315 45 225 135;
#X connect 4 0 12 0;
#X connect 4 0 13 0;
#X connect 4 0 14 0;
#X connect 4 0 15 0;
#X connect 5 0 12 1;
#X connect 5 0 13 1;
#X connect 5 0 14 1;
#X connect 5 0 15 1;
#X connect 6 0 12 2;
#X connect 6 0 13 2;
#X connect 6 0 14 2;
#X connect 6 0 15 2;
#X connect 7 0 8 0;
#X connect 8 0 9 0;
#X connect 9 0 14 3;
#X connect 9 1 15 3;
#X connect 9 2 13 3;
#X connect 9 3 12 3;
#X connect 10 0 11 0;
#X connect 11 0 8 0;
#X connect 12 0 3 0;
#X connect 13 0 2 0;
#X connect 14 0 0 0;
#X connect 15 0 1 0;
