#N canvas 2 49 454 304 10;
#X obj 76 181 ambi.wxy2quad~;
#X obj 74 209 dac~ 1 2 3 4;
#X obj 78 109 noise~;
#X text 89 53 Description: Renders 1st order Ambisonic for four speakers
disposed in a square.;
#X msg 262 114 angle \$1;
#X obj 265 91 hsl 128 15 0 360 0 0 empty empty empty -2 -8 0 10 -258113
-1 -1 0 1;
#X obj 77 130 ambi.mono2wxy~;
#X connect 0 0 1 0;
#X connect 0 1 1 1;
#X connect 0 2 1 2;
#X connect 0 3 1 3;
#X connect 2 0 6 0;
#X connect 4 0 6 1;
#X connect 5 0 4 0;
#X connect 6 0 0 0;
#X connect 6 1 0 1;
#X connect 6 2 0 2;
