#N canvas 627 154 734 740 10;
#X obj 31 284 ambi.device.zoom2wxy~;
#X obj 187 435 vsl 20 50 -100 0 0 0 empty empty empty 0 -9 0 10 -258113
-1 -1 3920 1;
#X obj 32 218 ambi.device.zoom.read~;
#X obj 32 154 openpanel;
#X obj 32 98 bng 50 250 50 0 empty empty empty 17 7 0 10 -4034 -1 -1
;
#X text 14 12 Description: Reads two wave files from the Zoom H2 recorder/microphone.
;
#X text 12 75 For example \, opening SR006F.wav will also open SR006R.wav
;
#X text 13 43 Open one of the two files to read both if they are in
the same directory. (rear and front);
#X msg 518 329 savepanel;
#X msg 518 308 start;
#X msg 442 331 stop;
#X obj 350 404 tgl 15 0 empty empty empty 17 7 0 10 -262144 -1 -1 0
1;
#X text 374 405 recording status;
#X obj 349 371 ambi.sf.write.4~;
#X obj 395 235 print DONE;
#X obj 263 291 hsl 127 8 0 1 0 0 empty empty empty -2 -8 0 10 -191407
-1 -1 0 1;
#X obj 369 254 bng 15 250 50 0 empty empty empty 17 7 0 10 -262144
-1 -1;
#X floatatom 283 235 12 0 0 0 - - -;
#X obj 230 198 route duration elapsed done;
#X obj 260 270 /;
#X obj 369 233 t b;
#X floatatom 230 216 12 0 0 0 - - -;
#X obj 295 457 timing.ms2time_;
#X obj 397 216 print INFO;
#X obj 31 463 ambi.wxy2quad~;
#X obj 31 538 dac~ 1 2 3 4;
#X obj 161 554 ambi.vu.4_~;
#X obj 30 412 ambi.rotate.wxy~;
#X msg 123 391 angle \$1;
#X obj 126 372 hsl 128 15 0 360 0 0 empty empty empty -2 -8 0 10 -260097
-1 -1 0 1;
#X msg 209 140 stop;
#X msg 208 118 autoplay \$1;
#X obj 209 98 tgl 15 0 empty empty empty 17 7 0 10 -260097 -1 -1 0
1;
#X msg 209 163 play;
#X obj 442 311 spigot;
#X obj 478 291 tgl 15 0 empty empty empty 17 7 0 10 -260097 -1 -1 0
1;
#X obj 280 500 timing.ms2time_;
#X obj 187 392 loadbang;
#X msg 187 413 -20;
#X obj 30 492 ambi.gain.4~;
#X obj 32 175 y.flow.prepend.1 open;
#X connect 0 0 13 0;
#X connect 0 0 27 0;
#X connect 0 1 13 1;
#X connect 0 1 27 1;
#X connect 0 2 13 2;
#X connect 0 2 27 2;
#X connect 1 0 39 4;
#X connect 2 0 0 0;
#X connect 2 1 0 1;
#X connect 2 2 0 2;
#X connect 2 3 0 3;
#X connect 2 4 18 0;
#X connect 3 0 40 0;
#X connect 4 0 3 0;
#X connect 8 0 13 4;
#X connect 9 0 13 4;
#X connect 10 0 13 4;
#X connect 13 0 11 0;
#X connect 16 0 34 0;
#X connect 18 0 19 1;
#X connect 18 0 21 0;
#X connect 18 0 36 0;
#X connect 18 1 17 0;
#X connect 18 1 19 0;
#X connect 18 1 22 0;
#X connect 18 2 14 0;
#X connect 18 2 20 0;
#X connect 18 3 23 0;
#X connect 19 0 15 0;
#X connect 20 0 16 0;
#X connect 24 0 39 0;
#X connect 24 1 39 1;
#X connect 24 2 39 2;
#X connect 24 3 39 3;
#X connect 27 0 24 0;
#X connect 27 1 24 1;
#X connect 27 2 24 2;
#X connect 28 0 27 3;
#X connect 29 0 28 0;
#X connect 30 0 2 0;
#X connect 31 0 2 0;
#X connect 32 0 31 0;
#X connect 33 0 2 0;
#X connect 34 0 10 0;
#X connect 35 0 34 1;
#X connect 37 0 38 0;
#X connect 38 0 1 0;
#X connect 39 0 25 0;
#X connect 39 0 26 0;
#X connect 39 1 25 1;
#X connect 39 1 26 1;
#X connect 39 2 25 2;
#X connect 39 2 26 2;
#X connect 39 3 25 3;
#X connect 39 3 26 3;
#X connect 40 0 2 0;
